# xmcd
#
# Track frame offsets:
# 150
# 18601
# 31115
# 43046
# 55330
# 68365
# 81092
# 97754
# 107602
# 121209
# 134929
# 148202
# 162881
# 173484
# 184799
#
# Disc length: 2578 seconds
#
#
# Revision: 0
# Processed by: cddbd v1.5.2PL0 Copyright (c) Steve Scherf et al.
# Submitted via: FreeRIP 2.945 
#
DISCID=c30a100f
DTITLE=Diverse - The Best of Country
DYEAR=1900
DGENRE=Country
TTITLE0=01 - Jonny Cash - One Piece At A Time
TTITLE1=02 - Don Willams - Some Broken Hearts Never Mend
TTITLE2=03 - Dolly Parton - Jolene
TTITLE3=04 - Charlie Rich - Rollin' With The Flow
TTITLE4=05 - Jerry Lee Lewis - Would You Take Another Chance On Me
TTITLE5=06 - Waylon Jennings - I'm A Ramblin' Man
TTITLE6=07 - Ronnie Milsap - Nobody Likes A Sad Song
TTITLE7=08 - Charlie Pride - Somebody Loves You Honey
TTITLE8=09 - Loretta Lynn - Coal Miner's Daugther
TTITLE9=10 - Conway Twitty - You've Never Been This Fare Before
TTITLE10=11 - Bobby Bare - Marie Lavaux
TTITLE11=12 - Waylon Jennings - Luckenbach, Texas
TTITLE12=13 - The Kendalls - Heaven's Just A Sin Away
TTITLE13=14 - Sunny James - Young Love
TTITLE14=15 - Ferlin Husky - Wings Of A Dove
EXTD=
EXTT0=
EXTT1=
EXTT2=
EXTT3=
EXTT4=
EXTT5=
EXTT6=
EXTT7=
EXTT8=
EXTT9=
EXTT10=
EXTT11=
EXTT12=
EXTT13=
EXTT14=
PLAYORDER=
